<svg width="60" height="60" viewBox="0 0 60 60" fill="none" xmlns="http://www.w3.org/2000/svg">
<path d="M14.0269 16.3308C14.3629 15.9197 14.522 15.5218 14.5043 15.1328C14.4911 14.7438 14.3231 14.4167 14.0004 14.1558C13.6777 13.8906 13.3328 13.8066 12.9748 13.9039C12.8112 13.9481 12.6653 14.0276 12.5371 14.1293L12.5106 14.1072C12.5548 13.979 12.5725 13.8464 12.5681 13.7049C12.5504 13.3911 12.4089 13.1258 12.1393 12.9092C11.8608 12.6837 11.5469 12.5953 11.1976 12.6484C10.8484 12.7014 10.5345 12.8915 10.2649 13.2231L8.78837 15.0311L12.5681 18.1124L14.0225 16.3308H14.0269ZM9.65482 14.9206L10.7114 13.6254C10.8749 13.422 11.0562 13.3071 11.2595 13.2805C11.4585 13.254 11.6441 13.3071 11.8077 13.4397C11.9713 13.5767 12.0641 13.7447 12.0729 13.9436C12.0862 14.147 12.0111 14.3459 11.8431 14.5493L10.7865 15.8445L9.65482 14.9206ZM11.2463 16.2203L12.3028 14.925C12.515 14.6642 12.7405 14.5095 12.9703 14.4653C13.2002 14.4211 13.4124 14.483 13.6113 14.6421C13.7926 14.7924 13.8854 14.9825 13.8854 15.2168C13.8854 15.4511 13.7793 15.6987 13.5716 15.9551L12.515 17.2503L11.2463 16.2159V16.2203Z" fill="#61C4BF"/>
<path d="M16.4761 13.8115L15.9501 12.4322L17.8952 11.022L19.0445 11.9548L19.5529 11.5879L15.676 8.37404L14.1243 9.4969L15.9722 14.1784L16.4805 13.8115H16.4761ZM14.8626 9.69141L15.6229 9.13882L17.431 10.6242L15.7113 11.8708L14.8626 9.69141Z" fill="#61C4BF"/>
<path d="M21.4227 10.7163L20.7729 9.02758L21.9753 8.56341L23.7303 9.82773L24.4111 9.56691L22.5633 8.2628C22.9125 8.03292 23.1468 7.75884 23.2618 7.43171C23.3767 7.109 23.3723 6.77745 23.2396 6.43263C23.0805 6.01709 22.7976 5.73416 22.3953 5.57944C21.993 5.42471 21.5377 5.44681 21.0337 5.64132L19.0842 6.39284L20.8392 10.9417L21.4227 10.7163ZM19.8799 6.71998L21.2459 6.19391C21.5951 6.05687 21.8958 6.03477 22.1345 6.12318C22.3776 6.21159 22.55 6.38843 22.6561 6.65809C22.7578 6.92775 22.749 7.17531 22.6296 7.40518C22.5102 7.63506 22.2715 7.81631 21.9223 7.94893L20.5563 8.47499L19.8799 6.71998Z" fill="#61C4BF"/>
<path d="M25.9343 4.33145L25.316 4.43992L26.1586 9.24261L26.7769 9.13415L25.9343 4.33145Z" fill="#61C4BF"/>
<path d="M31.3426 8.20527C31.1348 8.35999 30.8298 8.43514 30.4319 8.4263C29.9324 8.41746 29.5522 8.25831 29.2958 7.94002C29.1808 7.79856 29.1013 7.63942 29.0526 7.46259L28.4249 7.45375C28.4868 7.74551 28.5929 8.00633 28.752 8.22295C29.1145 8.74017 29.6715 9.00541 30.4186 9.01425C30.9889 9.0231 31.4442 8.89047 31.7758 8.62081C32.1118 8.35115 32.2798 8.01518 32.2886 7.61731C32.2886 7.41396 32.2532 7.23271 32.1736 7.07357C32.0941 6.91442 31.9791 6.7818 31.8288 6.67128C31.6785 6.56077 31.5194 6.47235 31.3602 6.3972C31.1967 6.32647 31.011 6.26016 30.7988 6.19827C30.6087 6.14964 30.4584 6.10543 30.3391 6.07449C30.2197 6.04354 30.0915 5.99049 29.9412 5.93302C29.7909 5.87113 29.676 5.81367 29.592 5.75178C29.508 5.69431 29.4372 5.61916 29.3798 5.53074C29.3223 5.44233 29.2914 5.34507 29.2958 5.23897C29.2958 5.01794 29.4019 4.82785 29.6008 4.67755C29.7997 4.52724 30.0738 4.45209 30.4231 4.45651C30.8563 4.46535 31.1967 4.59797 31.4487 4.85437C31.5548 4.98257 31.6255 5.11077 31.6653 5.23897L32.293 5.24782C32.2311 4.99584 32.1294 4.77038 31.9836 4.56703C31.6388 4.10728 31.1215 3.86856 30.4363 3.85972C29.9147 3.85088 29.4947 3.98349 29.1676 4.24874C28.8404 4.5184 28.6769 4.84111 28.6725 5.22129C28.6725 5.32739 28.6813 5.42907 28.7078 5.5219C28.7299 5.61474 28.7609 5.69873 28.7918 5.77388C28.8272 5.84903 28.8758 5.91976 28.9421 5.99049C29.0084 6.05681 29.0703 6.11869 29.1278 6.1629C29.1853 6.21153 29.2604 6.26016 29.3577 6.30879C29.4549 6.35741 29.5389 6.40162 29.6052 6.43256C29.676 6.46351 29.7688 6.49887 29.8837 6.53866C29.9987 6.57845 30.0915 6.60497 30.1622 6.62708C30.233 6.64476 30.3258 6.6757 30.4496 6.70665C30.5734 6.74201 30.6618 6.76854 30.7148 6.78622C31.0198 6.87905 31.2542 6.98957 31.4177 7.11335C31.5813 7.23713 31.6653 7.4007 31.6609 7.60405C31.6609 7.84719 31.5503 8.0417 31.3426 8.19642V8.20527Z" fill="#61C4BF"/>
<path d="M35.0426 9.44828L35.6483 9.603L36.7048 5.45196L38.3228 5.86309L38.4687 5.2884L34.6227 4.31142L34.4768 4.88612L36.0947 5.29724L35.0426 9.44828Z" fill="#61C4BF"/>
<path d="M40.6114 6.19729L38.5901 10.6346L39.1614 10.8949L41.1827 6.45751L40.6114 6.19729Z" fill="#61C4BF"/>
<path d="M42.6729 13.1751C43.3272 13.6614 44.0345 13.794 44.7993 13.5818C45.1264 13.4978 45.4447 13.3431 45.7497 13.1176L45.2458 12.7463C45.0203 12.8966 44.7904 12.9983 44.565 13.0469C44.0036 13.1618 43.4908 13.0469 43.0266 12.7021C42.5757 12.3661 42.3148 11.9461 42.2485 11.4377C42.1778 10.9294 42.3237 10.4387 42.6729 9.96566C43.0266 9.49264 43.451 9.21414 43.9593 9.13457C44.4633 9.05499 44.9452 9.17877 45.3961 9.51475C45.8558 9.85514 46.1122 10.2928 46.1741 10.8277C46.1962 11.0487 46.1741 11.2786 46.1166 11.5217L46.6206 11.8931C46.74 11.566 46.793 11.2388 46.7798 10.9073C46.7532 10.1469 46.4084 9.52359 45.7497 9.03289C45.1618 8.59524 44.5296 8.42725 43.8532 8.53335C43.1769 8.63503 42.6199 8.98868 42.1734 9.5899C41.7269 10.1911 41.5545 10.8277 41.6517 11.5041C41.749 12.1804 42.0894 12.7374 42.6818 13.1751H42.6729Z" fill="#61C4BF"/>
<path d="M45.8025 15.7531L47.1641 15.174L48.645 17.066L47.7565 18.2464L48.1411 18.7415L51.2135 14.754L50.0331 13.2466L45.4179 15.258L45.8025 15.7531ZM49.8651 13.9937L50.4442 14.7363L49.0252 16.5975L47.7167 14.922L49.8651 13.9937Z" fill="#61C4BF"/>
<path d="M29.9772 12.357C20.2605 12.357 12.3563 20.2612 12.3563 29.9779C12.3563 39.6946 20.2605 47.5988 29.9772 47.5988C39.6939 47.5988 47.5981 39.6946 47.5981 29.9779C47.5981 20.2612 39.6939 12.357 29.9772 12.357ZM29.9772 34.1333C27.6873 34.1333 25.8261 32.2722 25.8261 29.9823C25.8261 27.6924 27.6873 25.8313 29.9772 25.8313C32.2671 25.8313 34.1282 27.6924 34.1282 29.9823C34.1282 32.2722 32.2671 34.1333 29.9772 34.1333ZM18.1341 18.1348C21.0827 15.1862 24.942 13.4754 29.0886 13.2632L29.0886 24.1116C26.2373 24.5404 24.0446 27.0072 24.0446 29.9779C24.0446 31.2908 24.4734 32.5109 25.2028 33.4923L21.8608 36.8344C20.2914 34.9821 19.341 32.5905 19.341 29.9779C19.341 25.2566 22.4355 21.247 26.7015 19.8633V18.0066C21.4408 19.4478 17.5594 24.2663 17.5594 29.9779C17.5594 33.0812 18.7088 35.9149 20.5965 38.0943L17.5152 41.1755C14.7435 38.1031 13.2271 34.1598 13.2271 29.9779C13.2271 25.4997 14.9645 21.2956 18.1253 18.1348H18.1341ZM18.784 42.4354L21.8608 39.3586C21.8608 39.3586 21.8608 39.3586 21.8652 39.3586L23.1251 38.0987C23.1251 38.0987 23.1251 38.0987 23.1207 38.0987L26.4627 34.7566C27.4485 35.4816 28.6642 35.9149 29.9772 35.9149C31.2901 35.9149 32.5102 35.4861 33.4916 34.7566L36.8337 38.0943C34.9814 39.6636 32.5898 40.6141 29.9772 40.6141C28.2398 40.6141 26.5998 40.1941 25.1498 39.4514L23.8368 40.7644C25.6493 41.7988 27.7447 42.3956 29.9772 42.3956C33.0805 42.3956 35.9186 41.2462 38.0936 39.3586L41.1748 42.4398C34.8267 48.1558 25.1277 48.1558 18.784 42.4398V42.4354ZM42.4347 41.1755L34.7515 33.4967C35.4765 32.5109 35.9098 31.2952 35.9098 29.9823C35.9098 27.0116 33.7171 24.5492 30.8658 24.116V19.3903C36.3121 19.8456 40.609 24.4211 40.609 29.9823C40.609 31.7241 40.1846 33.3685 39.4375 34.823L40.7504 36.1359C41.7893 34.3234 42.3905 32.2236 42.3905 29.9867C42.3905 23.4441 37.2979 18.0685 30.8702 17.6087V13.2676C35.0124 13.4842 38.8761 15.1906 41.8203 18.1392C48.1374 24.4564 48.3408 34.6108 42.4347 41.1755Z" fill="#61C4BF"/>
<path d="M58.6052 21.0735C58.4594 20.6049 58.3002 20.1407 58.1322 19.681C58.0482 19.4511 57.9598 19.2212 57.8714 18.9958C53.4816 7.88211 42.6332 1.25739e-06 29.9768 0C17.3203 -1.25739e-06 6.47191 7.88211 2.08215 18.9958C1.99374 19.2212 1.90532 19.4511 1.82133 19.681C1.65334 20.1407 1.4942 20.6049 1.34832 21.0735C0.473017 23.8895 3.0787e-07 26.8779 0 29.9768C-3.07869e-07 33.0757 0.473016 36.0685 1.34831 38.8801C1.4942 39.3487 1.65334 39.8128 1.82133 40.2726C1.90532 40.5025 1.99373 40.7323 2.08215 40.9578C6.4719 52.0714 17.3203 59.9535 29.9768 59.9535C42.6332 59.9535 53.4816 52.0714 57.8714 40.9578C57.9598 40.7323 58.0482 40.5025 58.1322 40.2726C58.3002 39.8128 58.4594 39.3487 58.6052 38.8801C59.4805 36.0641 59.9535 33.0757 59.9535 29.9768C59.9535 26.8779 59.4805 23.8851 58.6052 21.0735ZM1.61356 23.412C1.88322 22.2405 2.22803 21.0956 2.63474 19.9816C2.71873 19.7605 2.80273 19.5395 2.88672 19.3185C7.14828 8.52753 17.6828 0.870878 29.9724 0.870879C42.2619 0.87088 52.7964 8.52754 57.058 19.3185C57.1464 19.5395 57.2304 19.7605 57.31 19.9816C57.6371 20.8746 57.92 21.7852 58.1632 22.7136C58.5478 24.2122 58.8174 25.7594 58.9589 27.3376L54.2464 27.0193C53.8839 24.053 52.9865 21.2547 51.6603 18.7128C51.4083 18.8587 51.1519 18.9913 50.8911 19.1195C52.1422 21.5244 53.0042 24.1636 53.3623 26.9574L48.7603 26.6436C48.0928 22.8108 46.2671 19.2831 43.4643 16.476C36.0199 9.0315 23.9116 9.03149 16.4671 16.476C13.5937 19.3494 11.8386 22.9169 11.18 26.6391L6.56916 26.953C6.92724 24.1547 7.78928 21.5156 9.04034 19.1151C8.77952 18.9869 8.52311 18.8543 8.27113 18.7084C6.94492 21.2503 6.0431 24.0486 5.68502 27.0149L0.972557 27.3332C1.09192 25.9981 1.30411 24.6852 1.6003 23.4076L1.61356 23.412ZM48.168 29.9768C48.168 40.0073 40.0073 48.168 29.9768 48.168C19.9462 48.168 11.7856 40.0073 11.7856 29.9768C11.7856 19.9462 19.9462 11.7856 29.9768 11.7856C40.0073 11.7856 48.168 19.9462 48.168 29.9768ZM58.1676 37.2444C57.9289 38.1728 57.6415 39.0834 57.3144 39.9764C57.2348 40.1974 57.1464 40.4229 57.0624 40.6395C52.8009 51.4304 42.2663 59.0871 29.9768 59.0871C17.6872 59.0871 7.15269 51.4304 2.89114 40.6395C2.80272 40.4185 2.71873 40.1974 2.63916 39.9764C2.23245 38.8624 1.88764 37.7174 1.61798 36.5459C1.1317 34.4373 0.870878 32.2358 0.870879 29.9812C0.870879 29.3888 0.892983 28.8009 0.923928 28.2173L11.0606 27.5277C10.3312 33.1995 12.1348 39.132 16.4804 43.4776C20.0788 47.076 24.8753 49.0609 29.9768 49.0609C35.0783 49.0609 39.8747 47.0805 43.4732 43.4776C47.0716 39.8792 49.0565 35.0827 49.0565 29.9812C49.0565 29.1545 49.0035 28.3367 48.9018 27.5277L59.0296 28.2173C59.065 28.8009 59.0827 29.3888 59.0827 29.9812C59.0827 32.4877 58.7644 34.9235 58.1632 37.2488L58.1676 37.2444Z" fill="#61C4BF"/>
<path d="M31.886 52.1736C32.2927 52.1471 32.611 52.2178 32.8408 52.3858C33.0707 52.5538 33.1989 52.8058 33.221 53.1373C33.2387 53.4203 33.1635 53.659 32.9867 53.8535C32.8143 54.048 32.5623 54.1718 32.2352 54.2292L33.3934 55.5378L32.5623 55.5952L31.4616 54.2911L31.2582 54.3044L31.351 55.6748L30.6658 55.7234L30.4271 52.2753L31.886 52.1736ZM31.1565 52.8633L31.214 53.7076L31.9744 53.6546C32.3545 53.628 32.5314 53.4733 32.5137 53.186C32.496 52.8986 32.2971 52.7837 31.9169 52.8102L31.1565 52.8633Z" fill="#61C4BF"/>
<path d="M36.2498 51.4571C36.5858 51.3554 36.9041 51.3377 37.2179 51.404C37.5274 51.4703 37.7971 51.6118 38.0225 51.8284C38.248 52.045 38.4115 52.3191 38.5088 52.6418C38.606 52.9645 38.6237 53.2828 38.553 53.5923C38.4867 53.8973 38.3408 54.167 38.1198 54.3924C37.8987 54.6179 37.6202 54.7859 37.2887 54.8875C37.0367 54.9627 36.7891 54.9892 36.546 54.9715C36.3029 54.9494 36.0862 54.8875 35.8873 54.7814C35.6884 54.6753 35.516 54.5295 35.3657 54.3438C35.2154 54.1581 35.1048 53.9415 35.0297 53.6984C34.9545 53.4552 34.928 53.2121 34.9501 52.9734C34.9722 52.7347 35.0341 52.518 35.1402 52.3191C35.2463 52.1246 35.3922 51.9478 35.5823 51.7975C35.7724 51.6472 35.9934 51.5322 36.2454 51.4571H36.2498ZM36.4399 52.0892C36.1349 52.1821 35.9138 52.3589 35.7768 52.6197C35.6398 52.8805 35.6221 53.1723 35.7193 53.4906C35.8166 53.8089 35.9934 54.0432 36.2498 54.1802C36.5062 54.3217 36.7891 54.3482 37.0942 54.2554C37.3992 54.1625 37.6246 53.9857 37.7573 53.7249C37.8943 53.4641 37.912 53.1767 37.8147 52.854C37.7175 52.5313 37.5406 52.3059 37.2842 52.16C37.0278 52.0141 36.7449 51.9964 36.4355 52.0892H36.4399Z" fill="#61C4BF"/>
<path d="M43.4862 51.8941L42.832 52.2345L42.1954 51.6598L40.8869 52.3405L40.9885 53.1937L40.352 53.5253L39.9541 49.8384L40.7012 49.4538L43.4862 51.9029V51.8941ZM40.8029 51.6642L41.6914 51.2044L40.6349 50.2496L40.8029 51.6686V51.6642Z" fill="#61C4BF"/>
<path d="M45.4974 47.1874C45.1305 47.2581 44.821 47.404 44.5735 47.6294C44.4276 47.7621 44.3348 47.8947 44.295 48.0317C44.2552 48.1688 44.2773 48.2837 44.3613 48.381C44.4011 48.4252 44.4497 48.4517 44.5027 48.465C44.5558 48.4738 44.6221 48.465 44.6928 48.4429C44.7636 48.4207 44.8343 48.3854 44.905 48.35C44.9758 48.3147 45.0598 48.2616 45.157 48.1953L45.325 48.0892C45.9483 47.6825 46.4346 47.6736 46.7927 48.0671C46.9164 48.2041 47.0004 48.3544 47.0402 48.5136C47.08 48.6727 47.0844 48.8319 47.0446 48.9866C47.0093 49.1413 46.943 49.2916 46.8501 49.4419C46.7573 49.5878 46.6424 49.7249 46.5009 49.8531C46.2975 50.0343 46.0765 50.1846 45.8334 50.2995C45.5902 50.4145 45.3515 50.4808 45.1216 50.4941L45.0155 49.8398C45.188 49.8265 45.3692 49.7823 45.5593 49.7072C45.7494 49.632 45.9218 49.5215 46.0809 49.38C46.2268 49.2474 46.3241 49.1104 46.3683 48.9689C46.4125 48.8274 46.3904 48.7125 46.302 48.6153C46.2268 48.5313 46.1251 48.5047 46.0014 48.5401C45.8776 48.5755 45.7052 48.6639 45.4841 48.8054L45.2985 48.9291C45.1614 49.0175 45.0332 49.0839 44.9094 49.1325C44.7857 49.1811 44.6663 49.2076 44.5425 49.2165C44.4187 49.2253 44.2994 49.2032 44.18 49.1502C44.0607 49.0971 43.9546 49.0175 43.8485 48.9026C43.7291 48.7744 43.654 48.6329 43.6142 48.4782C43.5744 48.3235 43.57 48.1688 43.6053 48.0185C43.6407 47.8682 43.7026 47.7179 43.791 47.572C43.8794 47.4261 43.9944 47.289 44.1314 47.1653C44.3127 47.0017 44.4983 46.8691 44.6928 46.7718C44.8873 46.6746 45.1084 46.5994 45.3559 46.5508L45.493 47.1874H45.4974Z" fill="#61C4BF"/>
<path d="M48.5793 43.7248L47.8499 44.5117L49.91 46.4259L49.4414 46.9298L47.3813 45.0157L46.6519 45.8026L46.1789 45.3649L48.1063 43.2916L48.5793 43.7293V43.7248Z" fill="#61C4BF"/>
<path d="M53.2164 41.4567L51.8327 43.6361L48.915 41.7838L50.2899 39.6177L50.8248 39.9581L49.8213 41.5407L50.4667 41.9518L51.426 40.4399L51.9609 40.7803L51.0016 42.2922L51.6736 42.7166L52.6859 41.1163L53.2208 41.4567H53.2164Z" fill="#61C4BF"/>
<path d="M51.2627 36.7486C51.3953 36.364 51.5854 36.0987 51.8329 35.9528C52.0761 35.8069 52.359 35.7893 52.6729 35.8998C52.9425 35.9926 53.1326 36.1606 53.2387 36.3949C53.3492 36.6336 53.3625 36.9121 53.2873 37.2348L54.9451 36.6867L54.671 37.4735L53.0398 37.9731L52.9735 38.1632L54.2731 38.6185L54.0477 39.2683L50.7852 38.1278L51.2671 36.7486H51.2627ZM51.6075 37.6902L52.4076 37.9687L52.6596 37.2525C52.7834 36.8944 52.7126 36.669 52.443 36.5717C52.1733 36.4745 51.9876 36.6115 51.8594 36.974L51.6075 37.6902Z" fill="#61C4BF"/>
<path d="M54.4589 32.0174L55.8161 32.1589L55.7453 32.8441L54.3882 32.7027L52.169 33.8078L52.253 33.0033L53.8046 32.2915L52.4342 31.2748L52.5182 30.4923L54.4633 32.0174H54.4589Z" fill="#61C4BF"/>
<path d="M9.09279 37.492C9.18121 37.8589 9.18121 38.2126 9.08837 38.5441C8.99554 38.8757 8.82313 39.1586 8.57557 39.3929C8.32359 39.6272 8.01856 39.7863 7.66048 39.8703C7.29799 39.9587 6.95317 39.9543 6.62604 39.8615C6.29891 39.7687 6.01598 39.5962 5.78169 39.3398C5.54739 39.0834 5.38825 38.774 5.29983 38.4071C5.23352 38.1286 5.22026 37.8589 5.25562 37.5981C5.29541 37.3373 5.37498 37.103 5.50318 36.8952C5.63138 36.6874 5.79937 36.5106 6.01156 36.3559C6.22376 36.2056 6.4669 36.095 6.73656 36.0287C7.00622 35.9624 7.27146 35.9492 7.52786 35.989C7.78426 36.0287 8.01856 36.1083 8.22633 36.2365C8.43411 36.3647 8.61094 36.5371 8.76566 36.7493C8.92039 36.9659 9.0309 37.2091 9.09721 37.492H9.09279ZM8.39432 37.66C8.31475 37.324 8.1335 37.072 7.85942 36.9085C7.58533 36.7449 7.27146 36.7051 6.91781 36.7891C6.56415 36.8731 6.30333 37.0543 6.13092 37.324C5.96294 37.5937 5.91873 37.8987 5.9983 38.2391C6.08229 38.5795 6.25912 38.8315 6.5332 38.995C6.80729 39.1586 7.12116 39.1984 7.47482 39.1144C7.82847 39.0304 8.08929 38.8491 8.2617 38.5795C8.42969 38.3098 8.4739 38.0048 8.39432 37.6644V37.66Z" fill="#61C4BF"/>
<path d="M7.79395 32.3337C7.87352 32.6697 7.87794 32.9968 7.79395 33.3107C7.71438 33.6245 7.56407 33.8854 7.34746 34.0975L6.81255 33.5626C6.94517 33.4168 7.03801 33.2532 7.08663 33.0719C7.13526 32.8907 7.13526 32.6962 7.08663 32.4972C7.00706 32.1657 6.83023 31.9137 6.55173 31.7502C6.27765 31.5866 5.96378 31.5468 5.61012 31.6308C5.25204 31.7148 4.9868 31.896 4.82324 32.1701C4.65525 32.4442 4.61104 32.7448 4.69504 33.0764C4.79229 33.4831 5.03543 33.7616 5.42445 33.9075L5.13711 34.6059C4.85418 34.4954 4.61546 34.3274 4.41211 34.0931C4.21318 33.8588 4.07172 33.5803 3.99214 33.2488C3.92583 32.9703 3.91257 32.7006 3.94794 32.4398C3.98772 32.179 4.0673 31.9447 4.1955 31.7369C4.3237 31.5291 4.49168 31.3523 4.70388 31.1976C4.91607 31.0473 5.15479 30.9367 5.42887 30.8749C5.69853 30.8085 5.96378 30.7953 6.22018 30.8351C6.47658 30.8749 6.71088 30.9544 6.91865 31.0826C7.12642 31.2108 7.30767 31.3788 7.45797 31.5954C7.60828 31.812 7.7188 32.0596 7.78953 32.3381L7.79395 32.3337Z" fill="#61C4BF"/>
<path d="M10.0256 44.0172L9.04867 42.4037L7.74456 43.1905L7.35554 42.5495L10.5738 40.6L12.0061 42.9651L11.4137 43.3232L10.3705 41.5991L9.63662 42.0412L10.6136 43.6547L10.0212 44.0128L10.0256 44.0172Z" fill="#61C4BF"/>
<path d="M13.412 48.1291L12.0681 46.8029L10.9983 47.886L10.4634 47.3599L13.107 44.6854L15.0742 46.6261L14.5879 47.1168L13.1556 45.7021L12.5544 46.3122L13.8983 47.6384L13.412 48.1291Z" fill="#61C4BF"/>
<path d="M17.0592 52.7167L14.6808 51.2137L16.6923 48.0308L19.0529 49.5205L18.686 50.1041L16.9619 49.0166L16.5154 49.7195L18.1599 50.7583L17.793 51.3419L16.1485 50.303L15.6843 51.0368L17.4261 52.1376L17.0592 52.7211V52.7167Z" fill="#61C4BF"/>
<path d="M22.4522 55.1L19.8263 54.0921L21.1747 50.5776L23.7784 51.5767L23.5309 52.2177L21.6256 51.4883L21.325 52.2663L23.1419 52.9648L22.8943 53.6058L21.0774 52.9073L20.7679 53.7163L22.691 54.4546L22.4434 55.0956L22.4522 55.1Z" fill="#61C4BF"/>
</svg>
